<svg xmlns="http://www.w3.org/2000/svg" viewBox="0 0 41.15 81.74"><defs><style>.cls-1{fill:#930;}</style></defs><title>mic</title><g id="Layer_2" data-name="Layer 2"><g id="HIV_virus_copy" data-name="HIV virus copy"><path class="cls-1" d="M20.57,54A12.9,12.9,0,0,0,33.46,41.12V12.89a12.82,12.82,0,0,0-4.19-9.48s0-.05-.06-.06h0A12.86,12.86,0,0,0,7.69,12.89V41.12A12.9,12.9,0,0,0,20.57,54ZM9.69,12.89A10.87,10.87,0,0,1,27.33,4.37l-3,4.48A1,1,0,1,0,26,10L28.8,5.77a11,11,0,0,1,1.46,2.17l-5.92,8.88A1,1,0,0,0,26,17.93l5.11-7.68a10.5,10.5,0,0,1,.34,2.64v.73l-.1.1-1.07,1.61h0l-5.95,8.92a1.25,1.25,0,0,0-.15.36,1,1,0,0,0,.43,1,.94.94,0,0,0,.55.17,1,1,0,0,0,.84-.44l5.45-8.18v3.87a.81.81,0,0,0-.1.09l-1.07,1.62-5.95,8.92a1,1,0,0,0,.28,1.38.94.94,0,0,0,.55.17,1,1,0,0,0,.84-.44l5.45-8.19v9.24H9.69Z"/><path class="cls-1" d="M26.1,60.21a15.07,15.07,0,0,0,15-15.05V27a2,2,0,0,0-4,0V45.16a11.07,11.07,0,0,1-11,11.05H15A11.06,11.06,0,0,1,4,45.16V27a2,2,0,0,0-4,0V45.16A15.06,15.06,0,0,0,15,60.21h1.82v12H15c-7.2,0-13,4.27-13,9.53H39.15c0-5.26-5.84-9.53-13-9.53H24.29v-12Z"/></g></g></svg>